<?xml version="1.0" encoding="UTF-8" standalone="no"?>
<!DOCTYPE svg PUBLIC "-//W3C//DTD SVG 1.0//EN" "http://www.w3.org/TR/2001/PR-SVG-20010719/DTD/svg10.dtd">
<svg width="78cm" height="53cm" viewBox="-41 99 1556 1057" xmlns="http://www.w3.org/2000/svg" xmlns:xlink="http://www.w3.org/1999/xlink">
  <g>
    <polygon style="fill: #ffffff" points="-3.60298,500 140,500 103.603,600 -40,600 "/>
    <polygon style="fill: none; fill-opacity:0; stroke-width: 2; stroke: #000000" points="-3.60298,500 140,500 103.603,600 -40,600 "/>
    <text font-size="12.8" style="fill: #000000;text-anchor:middle;font-family:sans-serif;font-style:normal;font-weight:normal" x="50" y="553.9">
      <tspan x="50" y="553.9">Time</tspan>
    </text>
  </g>
  <g>
    <polygon style="fill: #ffffff" points="12.6926,320 162.896,320 119.219,440 -30.9838,440 "/>
    <polygon style="fill: none; fill-opacity:0; stroke-width: 2; stroke: #000000" points="12.6926,320 162.896,320 119.219,440 -30.9838,440 "/>
    <text font-size="12.8" style="fill: #000000;text-anchor:middle;font-family:sans-serif;font-style:normal;font-weight:normal" x="65.9559" y="383.9">
      <tspan x="65.9559" y="383.9">Atmospheric Data</tspan>
    </text>
  </g>
  <g>
    <rect style="fill: #ffffff" x="220" y="380" width="160" height="140"/>
    <rect style="fill: none; fill-opacity:0; stroke-width: 2; stroke: #000000" x="220" y="380" width="160" height="140"/>
    <text font-size="12.8" style="fill: #000000;text-anchor:middle;font-family:sans-serif;font-style:normal;font-weight:normal" x="300" y="453.9">
      <tspan x="300" y="453.9">readData()</tspan>
    </text>
  </g>
  <g>
    <line style="fill: none; fill-opacity:0; stroke-width: 2; stroke: #000000" x1="134.252" y1="400.427" x2="209.67" y2="422.983"/>
    <polygon style="fill: #000000" points="216.855,425.132 205.842,427.057 209.67,422.983 208.707,417.476 "/>
    <polygon style="fill: none; fill-opacity:0; stroke-width: 2; stroke: #000000" points="216.855,425.132 205.842,427.057 209.67,422.983 208.707,417.476 "/>
  </g>
  <g>
    <line style="fill: none; fill-opacity:0; stroke-width: 2; stroke: #000000" x1="134.785" y1="516.086" x2="209.959" y2="486.016"/>
    <polygon style="fill: #000000" points="216.923,483.231 209.495,491.587 209.959,486.016 205.781,482.302 "/>
    <polygon style="fill: none; fill-opacity:0; stroke-width: 2; stroke: #000000" points="216.923,483.231 209.495,491.587 209.959,486.016 205.781,482.302 "/>
  </g>
  <g>
    <path style="fill: #ffffff" d="M 450 380 L 600,380 C 577.5,408 570,422 570,450 C 570,478 577.5,492 600,520 L 450,520 C 427.5,492 420,478 420,450 C 420,422 427.5,408 450,380z"/>
    <path style="fill: none; fill-opacity:0; stroke-width: 2; stroke: #000000" d="M 450 380 L 600,380 C 577.5,408 570,422 570,450 C 570,478 577.5,492 600,520 L 450,520 C 427.5,492 420,478 420,450 C 420,422 427.5,408 450,380"/>
    <text font-size="12.8" style="fill: #000000;text-anchor:middle;font-family:sans-serif;font-style:normal;font-weight:normal" x="510" y="454">
      <tspan x="510" y="454">struct data</tspan>
    </text>
  </g>
  <g>
    <line style="fill: none; fill-opacity:0; stroke-width: 2; stroke: #000000" x1="381.003" y1="450" x2="410.278" y2="450"/>
    <polygon style="fill: #000000" points="417.778,450 407.778,455 410.278,450 407.778,445 "/>
    <polygon style="fill: none; fill-opacity:0; stroke-width: 2; stroke: #000000" points="417.778,450 407.778,455 410.278,450 407.778,445 "/>
  </g>
  <g>
    <path style="fill: #ffffff" d="M 480 120.333 C 508,105.083 522,100 550,100 C 578,100 592,105.083 620,120.333 L 620,201.667 C 592,216.917 578,222 550,222 C 522,222 508,216.917 480,201.667 L 480,120.333z"/>
    <path style="fill: none; fill-opacity:0; stroke-width: 2; stroke: #000000" d="M 480 120.333 C 508,105.083 522,100 550,100 C 578,100 592,105.083 620,120.333 L 620,201.667 C 592,216.917 578,222 550,222 C 522,222 508,216.917 480,201.667 L 480,120.333"/>
    <path style="fill: none; fill-opacity:0; stroke-width: 2; stroke: #000000" d="M 480 120.333 C 508,135.583 522,140.667 550,140.667 C 578,140.667 592,135.583 620,120.333"/>
    <text font-size="12.8" style="fill: #000000;text-anchor:middle;font-family:sans-serif;font-style:normal;font-weight:normal" x="550" y="175.167">
      <tspan x="550" y="175.167">SD card</tspan>
    </text>
  </g>
  <g>
    <rect style="fill: #ffffff" x="480" y="280" width="140" height="69"/>
    <rect style="fill: none; fill-opacity:0; stroke-width: 2; stroke: #000000" x="480" y="280" width="140" height="69"/>
    <text font-size="12.8" style="fill: #000000;text-anchor:middle;font-family:sans-serif;font-style:normal;font-weight:normal" x="550" y="318.4">
      <tspan x="550" y="318.4">storeData()</tspan>
    </text>
  </g>
  <g>
    <line style="fill: none; fill-opacity:0; stroke-width: 2; stroke: #000000" x1="552.38" y1="379" x2="551.669" y2="359.734"/>
    <polygon style="fill: #000000" points="551.393,352.239 556.758,362.048 551.669,359.734 546.765,362.416 "/>
    <polygon style="fill: none; fill-opacity:0; stroke-width: 2; stroke: #000000" points="551.393,352.239 556.758,362.048 551.669,359.734 546.765,362.416 "/>
  </g>
  <g>
    <line style="fill: none; fill-opacity:0; stroke-width: 2; stroke: #000000" x1="550" y1="279.001" x2="550" y2="231.671"/>
    <polygon style="fill: #000000" points="550,224.171 555,234.171 550,231.671 545,234.171 "/>
    <polygon style="fill: none; fill-opacity:0; stroke-width: 2; stroke: #000000" points="550,224.171 555,234.171 550,231.671 545,234.171 "/>
  </g>
  <g>
    <rect style="fill: #ffffff" x="680" y="380" width="180" height="140"/>
    <rect style="fill: none; fill-opacity:0; stroke-width: 2; stroke: #000000" x="680" y="380" width="180" height="140"/>
    <text font-size="12.8" style="fill: #000000;text-anchor:middle;font-family:sans-serif;font-style:normal;font-weight:normal" x="770" y="453.9">
      <tspan x="770" y="453.9">Borp()</tspan>
    </text>
  </g>
  <g>
    <line style="fill: none; fill-opacity:0; stroke-width: 2; stroke: #000000" x1="570.983" y1="450" x2="669.298" y2="450"/>
    <polygon style="fill: #000000" points="676.798,450 666.798,455 669.298,450 666.798,445 "/>
    <polygon style="fill: none; fill-opacity:0; stroke-width: 2; stroke: #000000" points="676.798,450 666.798,455 669.298,450 666.798,445 "/>
  </g>
  <g>
    <line style="fill: none; fill-opacity:0; stroke-width: 2; stroke: #000000" x1="861.006" y1="450.136" x2="1005.19" y2="450.351"/>
    <polygon style="fill: #000000" points="1012.69,450.362 1002.69,455.347 1005.19,450.351 1002.7,445.347 "/>
    <polygon style="fill: none; fill-opacity:0; stroke-width: 2; stroke: #000000" points="1012.69,450.362 1002.69,455.347 1005.19,450.351 1002.7,445.347 "/>
  </g>
  <g>
    <path style="fill: #ffffff" d="M 695.919 974.529 L 853.061,974.529 C 876.633,1010.53 884.49,1028.53 884.49,1064.53 C 884.49,1100.53 876.633,1118.53 853.061,1154.53 L 695.919,1154.53 L 664.49,1064.53 L 695.919,974.529z"/>
    <path style="fill: none; fill-opacity:0; stroke-width: 2; stroke: #000000" d="M 695.919 974.529 L 853.061,974.529 C 876.633,1010.53 884.49,1028.53 884.49,1064.53 C 884.49,1100.53 876.633,1118.53 853.061,1154.53 L 695.919,1154.53 L 664.49,1064.53 L 695.919,974.529"/>
    <text font-size="12.8" style="fill: #000000;text-anchor:middle;font-family:sans-serif;font-style:normal;font-weight:normal" x="774.49" y="1068.53">
      <tspan x="774.49" y="1068.53">Data on the screen</tspan>
    </text>
  </g>
  <g>
    <rect style="fill: #ffffff" x="1015.93" y="380.501" width="180" height="140"/>
    <rect style="fill: none; fill-opacity:0; stroke-width: 2; stroke: #000000" x="1015.93" y="380.501" width="180" height="140"/>
    <text font-size="12.8" style="fill: #000000;text-anchor:middle;font-family:sans-serif;font-style:normal;font-weight:normal" x="1105.93" y="454.401">
      <tspan x="1105.93" y="454.401">MM2 Radio</tspan>
    </text>
  </g>
  <text font-size="12.7998" style="fill: #000000;text-anchor:start;font-family:sans-serif;font-style:normal;font-weight:normal" x="970.111" y="455.322">
    <tspan x="970.111" y="455.322"></tspan>
  </text>
  <text font-size="12.7998" style="fill: #000000;text-anchor:start;font-family:sans-serif;font-style:normal;font-weight:normal" x="864.999" y="435.141">
    <tspan x="864.999" y="435.141"></tspan>
  </text>
  <text font-size="12.7998" style="fill: #000000;text-anchor:start;font-family:sans-serif;font-style:normal;font-weight:normal" x="887.703" y="441.868">
    <tspan x="887.703" y="441.868">TTL Serial Data</tspan>
  </text>
  <g>
    <path style="fill: none; fill-opacity:0; stroke-width: 2; stroke-dasharray: 20; stroke: #000000" d="M 1110.27 554.143 C 1042.66,582.496 1006.67,633.749 946.693,583.586 C 886.716,533.423 860.544,670.826 788.571,618.482 C 716.598,566.138 706.344,647.559 665.344,655.559 C 624.344,663.559 579.579,588.112 546.479,683.912"/>
    <path style="fill: #000000" d="M 1110.27 554.143 C 1111.24,556.448 1109.9,559.72 1107.59,560.687 C 1105.29,561.654 1102.01,560.315 1101.05,558.01 C 1100.08,555.704 1101.42,552.432 1103.72,551.465 C 1106.03,550.498 1109.3,551.837 1110.27,554.143z"/>
    <path style="fill: none; fill-opacity:0; stroke-width: 2; stroke: #000000" d="M 1110.27 554.143 C 1111.24,556.448 1109.9,559.72 1107.59,560.687 C 1105.29,561.654 1102.01,560.315 1101.05,558.01 C 1100.08,555.704 1101.42,552.432 1103.72,551.465 C 1106.03,550.498 1109.3,551.837 1110.27,554.143"/>
    <path style="fill: #000000" d="M 546.479 683.912 C 544.116,683.096 542.57,679.917 543.386,677.554 C 544.203,675.191 547.382,673.644 549.745,674.461 C 552.108,675.277 553.654,678.456 552.838,680.819 C 552.022,683.182 548.842,684.729 546.479,683.912z"/>
    <path style="fill: none; fill-opacity:0; stroke-width: 2; stroke: #000000" d="M 546.479 683.912 C 544.116,683.096 542.57,679.917 543.386,677.554 C 544.203,675.191 547.382,673.644 549.745,674.461 C 552.108,675.277 553.654,678.456 552.838,680.819 C 552.022,683.182 548.842,684.729 546.479,683.912"/>
  </g>
  <g>
    <rect style="fill: #ffffff" x="457.039" y="712.257" width="180" height="140"/>
    <rect style="fill: none; fill-opacity:0; stroke-width: 2; stroke: #000000" x="457.039" y="712.257" width="180" height="140"/>
    <text font-size="12.8" style="fill: #000000;text-anchor:middle;font-family:sans-serif;font-style:normal;font-weight:normal" x="547.039" y="786.157">
      <tspan x="547.039" y="786.157">MM2 Radio</tspan>
    </text>
  </g>
  <g>
    <line style="fill: none; fill-opacity:0; stroke-width: 2; stroke: #000000" x1="637.039" y1="782.257" x2="743.123" y2="781.867"/>
    <polygon style="fill: #000000" points="750.623,781.84 740.641,786.877 743.123,781.867 740.605,776.877 "/>
    <polygon style="fill: none; fill-opacity:0; stroke-width: 2; stroke: #000000" points="750.623,781.84 740.641,786.877 743.123,781.867 740.605,776.877 "/>
  </g>
  <text font-size="12.7998" style="fill: #000000;text-anchor:start;font-family:sans-serif;font-style:normal;font-weight:normal" x="644.481" y="772.529">
    <tspan x="644.481" y="772.529">TTL Serial Data</tspan>
  </text>
  <text font-size="12.7998" style="fill: #000000;text-anchor:start;font-family:sans-serif;font-style:normal;font-weight:normal" x="863.092" y="777.392">
    <tspan x="863.092" y="777.392"></tspan>
  </text>
  <g>
    <rect style="fill: #ffffff" x="753.861" y="711.498" width="180" height="140"/>
    <rect style="fill: none; fill-opacity:0; stroke-width: 2; stroke: #000000" x="753.861" y="711.498" width="180" height="140"/>
    <text font-size="12.8" style="fill: #000000;text-anchor:middle;font-family:sans-serif;font-style:normal;font-weight:normal" x="843.861" y="785.398">
      <tspan x="843.861" y="785.398">Master</tspan>
    </text>
  </g>
  <g>
    <path style="fill: #ffffff" d="M 1313.64 703.827 L 1512.21,703.827 C 1482.42,736.599 1472.5,752.985 1472.5,785.757 C 1472.5,818.529 1482.42,834.915 1512.21,867.687 L 1313.64,867.687 C 1283.86,834.915 1273.93,818.529 1273.93,785.757 C 1273.93,752.985 1283.86,736.599 1313.64,703.827z"/>
    <path style="fill: none; fill-opacity:0; stroke-width: 2; stroke: #000000" d="M 1313.64 703.827 L 1512.21,703.827 C 1482.42,736.599 1472.5,752.985 1472.5,785.757 C 1472.5,818.529 1482.42,834.915 1512.21,867.687 L 1313.64,867.687 C 1283.86,834.915 1273.93,818.529 1273.93,785.757 C 1273.93,752.985 1283.86,736.599 1313.64,703.827"/>
    <text font-size="12.8" style="fill: #000000;text-anchor:middle;font-family:sans-serif;font-style:normal;font-weight:normal" x="1393.07" y="781.757">
      <tspan x="1393.07" y="781.757">CSV formatted Data</tspan>
      <tspan x="1393.07" y="797.757">(Caliberated)</tspan>
    </text>
  </g>
  <g>
    <line style="fill: none; fill-opacity:0; stroke-width: 2; stroke: #000000" x1="1189.18" y1="785.226" x2="1263.29" y2="785.375"/>
    <polygon style="fill: #000000" points="1270.79,785.391 1260.78,790.37 1263.29,785.375 1260.8,780.37 "/>
    <polygon style="fill: none; fill-opacity:0; stroke-width: 2; stroke: #000000" points="1270.79,785.391 1260.78,790.37 1263.29,785.375 1260.8,780.37 "/>
  </g>
  <g>
    <path style="fill: #ffffff" d="M 1322.56 986.935 L 1502.59,986.935 C 1475.58,1018.14 1466.58,1033.74 1466.58,1064.94 C 1466.58,1096.14 1475.58,1111.73 1502.59,1142.93 L 1322.56,1142.93 C 1295.55,1111.73 1286.55,1096.14 1286.55,1064.94 C 1286.55,1033.74 1295.55,1018.14 1322.56,986.935z"/>
    <path style="fill: none; fill-opacity:0; stroke-width: 2; stroke: #000000" d="M 1322.56 986.935 L 1502.59,986.935 C 1475.58,1018.14 1466.58,1033.74 1466.58,1064.94 C 1466.58,1096.14 1475.58,1111.73 1502.59,1142.93 L 1322.56,1142.93 C 1295.55,1111.73 1286.55,1096.14 1286.55,1064.94 C 1286.55,1033.74 1295.55,1018.14 1322.56,986.935"/>
    <text font-size="12.7998" style="fill: #000000;text-anchor:middle;font-family:sans-serif;font-style:normal;font-weight:normal" x="1394.57" y="1068.94">
      <tspan x="1394.57" y="1068.94">HTML formatted Data</tspan>
    </text>
  </g>
  <g>
    <line style="fill: none; fill-opacity:0; stroke-width: 2; stroke: #000000" x1="1451.43" y1="868.672" x2="1449.87" y2="976.196"/>
    <polygon style="fill: #000000" points="1449.76,983.695 1444.91,973.623 1449.87,976.196 1454.91,973.769 "/>
    <polygon style="fill: none; fill-opacity:0; stroke-width: 2; stroke: #000000" points="1449.76,983.695 1444.91,973.623 1449.87,976.196 1454.91,973.769 "/>
  </g>
  <g>
    <rect style="fill: #ffffff" x="1009.79" y="1000.01" width="172.999" height="129"/>
    <rect style="fill: none; fill-opacity:0; stroke-width: 2; stroke: #000000" x="1009.79" y="1000.01" width="172.999" height="129"/>
    <text font-size="12.7998" style="fill: #000000;text-anchor:middle;font-family:sans-serif;font-style:normal;font-weight:normal" x="1096.29" y="1068.41">
      <tspan x="1096.29" y="1068.41">Local-host Webpage</tspan>
    </text>
  </g>
  <g>
    <line style="fill: none; fill-opacity:0; stroke-width: 2; stroke: #000000" x1="1285.57" y1="1064.74" x2="1193.51" y2="1064.62"/>
    <polygon style="fill: #000000" points="1186.01,1064.61 1196.02,1059.63 1193.51,1064.62 1196.01,1069.63 "/>
    <polygon style="fill: none; fill-opacity:0; stroke-width: 2; stroke: #000000" points="1186.01,1064.61 1196.02,1059.63 1193.51,1064.62 1196.01,1069.63 "/>
  </g>
  <g>
    <line style="fill: none; fill-opacity:0; stroke-width: 2; stroke: #000000" x1="1008.79" y1="1064.51" x2="894.5" y2="1064.52"/>
    <polygon style="fill: #000000" points="887,1064.52 897,1059.52 894.5,1064.52 897,1069.52 "/>
    <polygon style="fill: none; fill-opacity:0; stroke-width: 2; stroke: #000000" points="887,1064.52 897,1059.52 894.5,1064.52 897,1069.52 "/>
  </g>
  <g>
    <rect style="fill: #ffffff" x="1013.94" y="720.549" width="174.4" height="129"/>
    <rect style="fill: none; fill-opacity:0; stroke-width: 2; stroke: #000000" x="1013.94" y="720.549" width="174.4" height="129"/>
    <text font-size="12.7998" style="fill: #000000;text-anchor:middle;font-family:sans-serif;font-style:normal;font-weight:normal" x="1101.14" y="788.949">
      <tspan x="1101.14" y="788.949">RAW Data Saved</tspan>
    </text>
  </g>
  <g>
    <line style="fill: none; fill-opacity:0; stroke-width: 2; stroke: #000000" x1="934.844" y1="782.754" x2="1003.2" y2="783.697"/>
    <polygon style="fill: #000000" points="1010.7,783.801 1000.63,788.662 1003.2,783.697 1000.77,778.663 "/>
    <polygon style="fill: none; fill-opacity:0; stroke-width: 2; stroke: #000000" points="1010.7,783.801 1000.63,788.662 1003.2,783.697 1000.77,778.663 "/>
  </g>
  <line style="fill: none; fill-opacity:0; stroke-width: 2; stroke: #000000" x1="547.395" y1="711.253" x2="547.57" y2="676.279"/>
  <line style="fill: none; fill-opacity:0; stroke-width: 2; stroke: #000000" x1="1105.92" y1="521.482" x2="1105.91" y2="559.595"/>
</svg>
